<svg id="CARTE" xmlns="http://www.w3.org/2000/svg" width="1700.64" height="2564.64" viewBox="0 0 1700.64 2564.64"><defs><style>.cls-1{fill:none;}.cls-2{fill:#373636;}.cls-3{fill:#373636;}</style></defs><title>Map</title><polygon class="cls-1" points="0.05 939.3 0.04 939.32 0.04 1011.99 0.05 1011.98 0.05 939.3"/><path class="cls-2" d="M211.92,905.84l108.13-56.38,63.53,12.77L475,856.76,603.61,750.62l80.75-165.08,30-5.56L817.12,440.08l98.07-129.25,73.9-40,21.62-22.75,32.61-.5L1348.46,84.72l39.72-.88L1495,23.72l84.79-4.81L1601-.12H1432.83l-24,12.25L1319,50.91l-229.18,73.4L869.36,270.36,805.64,402.71,594.27,631.17l-35.59,89.72-67.51,69.62-83.73,23.57L351,801.47l-52.68,23.32-63.61,42.47-50.27-2-56.72,35.45-60.86-3.62L2.25,937.8l-2.2,1.51V1012L105.91,937.4Zm888.15-729.43L1156,139l6.8,25.11-55.35,26.71-10.29-4.32ZM1087,202.18l-14.47,10.07-7.92,8.06-12.63-2.5-0.41-5.32,8.58-8.65,24.91-8.36ZM1068,188l3.42,3-1.57,3.8-9.82,6.35-6.75.27-5.81-4Zm-29.88,11.38,4.38-1.18,8.57,7.07-8.28,11.35-6.56,4-3.59-2.94-0.38-9.18Z"/><polygon class="cls-1" points="0.05 1782.32 0.04 1782.31 0.04 2009.9 0.05 2009.9 0.05 1782.32"/><path class="cls-2" d="M1610.31,715.74l-10.7,119.89L1452,1004l-47.13,122.74L1228,1301.61l2,31.31-59.5,172.56,10.38,59.57,8.73,55.75-30.38,72.88-138.06,51.81-59.83,138.37L799,1999.57l-131.09,80.78-103.09,15-174.92-44.14-109.26-152-149.38-23.28L0.05,1782.32V2009.9l238.32,14.27L316,2097.57l105.52,106.12,106.33,7.13,191,9.38,63.78,30.24,138.48,86.46,70.43,2.36,74.33,40,80.44-23.5,95.76-50.39,46.25-62.64,56.11-59.37-9.79-31.61,42.55-206.25,12.21-131.67-41.68-72,1.08-78-4.22-92.81-10.84-84.26,9.67-109.57-0.53-96.18,51.51-18.26,68.4-78.38,98.54-67.31,128.76-134.16,10.52-8V898.44l-20.75,8.36L1656.5,886l42.8-48.4,1.31-2.59V758.39l-26.34,8.44,26.34-90.12v-137l-18,21.29ZM770.56,2052.92l26-8,33.54,0.74,5.25,7.26,10.22,1.8-1.15,5.88-21.12.43-22.81-1.55-4.24,2.66-26.62-5.35Zm65,36.51s-7.37,9.07-8,9.24l-19.94,5.44-19.37-5.83-12.58-.63L756,2092.46,750,2066l11.16-5.2,22.34,6.61,25.22,2.89,22.92-4.33,18.24,4.51,0.84,15.76Zm285.8-272.55-68.33,94s-34.82-11.87-34.27-17.51,6.35-63.73,6.35-63.73l-9.15-12.56,25.29-60.37,121-47.83,26.28,64.45Zm112-366.32,12.55-129.38s30.36-59.27,33.09-61.22,19.23-8.06,19.23-8.06l4.74-1,1.42,23.67-11.9,5.17-5.25,24.79,12.56,35-18.4,74.86-34.09,52.11Zm77,129.76c0.2,0.13-30.21-23.37-30.21-23.37l-20.27-44.45,5.31-38.49,31.66-79,11.47-45,9.64,3-0.39,23.26-4.93,85.89,6.42,50.62S1310.2,1580.19,1310.38,1580.31Z"/><polygon class="cls-1" points="0.05 -0.12 2.69 -0.12 2.67 -0.16 0.04 -0.16 0.04 61.79 0.05 61.73 0.05 -0.12"/><polygon class="cls-2" points="2.69 -0.12 0.05 -0.12 0.05 61.73 11.83 16.33 2.69 -0.12"/><polygon class="cls-1" points="0.05 2028.29 0.04 2028.29 0.04 2051 0.05 2051 0.05 2028.29"/><polygon class="cls-2" points="6.11 2051.84 15.34 2031.15 0.05 2028.29 0.05 2051 6.11 2051.84"/><polygon class="cls-3" points="0.05 2009.9 0.04 2009.9 0.04 2028.29 0.05 2028.29 0.05 2009.9"/><rect class="cls-3" x="0.04" y="2051" width="0.02" height="513.8"/><polygon class="cls-3" points="0.05 61.73 0.04 61.79 0.04 939.32 0.05 939.3 0.05 61.73"/><polygon class="cls-3" points="0.05 1011.98 0.04 1011.99 0.04 1782.31 0.05 1782.32 0.05 1011.98"/></svg>